<svg width="160" height="160" viewBox="0 0 160 160" fill="none" xmlns="http://www.w3.org/2000/svg">
<path d="M113.662 30.9116C116.161 30.9116 117.802 30.4846 118.798 29.4544C119.792 28.4255 120.042 26.8948 120.042 24.9743C120.042 20.8405 115.744 17.6527 110.672 17.6527C108.173 17.6527 106.532 18.0797 105.536 19.1099C104.542 20.1388 104.292 21.6695 104.292 23.59C104.292 27.7238 108.59 30.9116 113.662 30.9116Z" fill="url(#paint0_linear)" stroke="#335D79" stroke-width="0.8"/>
<path d="M46.8829 30.9116C43.9809 30.9116 42.1019 30.4874 40.9615 29.4756C39.8026 28.4475 39.5059 26.9055 39.5059 24.9743C39.5059 22.8861 40.7856 21.0459 42.7505 19.7464C44.7185 18.4448 47.4141 17.6527 50.3713 17.6527C53.2733 17.6527 55.1523 18.0768 56.2927 19.0886C57.4516 20.1168 57.7483 21.6588 57.7483 23.59C57.7483 25.6782 56.4686 27.5183 54.5037 28.8179C52.5356 30.1195 49.8401 30.9116 46.8829 30.9116Z" fill="url(#paint1_linear)" stroke="#335D79" stroke-width="0.8"/>
<path d="M137.666 94.125V90.2104C137.666 89.8378 137.835 89.475 138.147 89.2509C139.39 88.358 141.267 87.2 143.355 86.2568C145.438 85.316 147.765 84.5734 149.897 84.5447C150.419 84.5377 150.782 84.8739 150.89 85.2901C150.995 85.6938 150.861 86.1606 150.475 86.4634L139.513 95.0678C138.728 95.6841 137.666 95.0696 137.666 94.125Z" fill="url(#paint2_linear)" stroke="#335D79" stroke-width="0.8"/>
<path d="M158.181 87.8358L139.897 109.882C139.498 110.364 138.901 110.462 138.417 110.27C137.935 110.079 137.566 109.605 137.566 108.99V95.6309C137.566 95.2158 137.748 94.816 138.073 94.5527L151.365 83.7651L153.238 82.2451L153.553 82.6334L153.238 82.2451C153.791 81.7958 154.582 81.8745 155.045 82.4114L158.164 86.0314C158.606 86.544 158.612 87.3153 158.181 87.8358Z" fill="url(#paint3_linear)" stroke="#335D79"/>
<path d="M22.3341 94.125V90.2104C22.3341 89.8378 22.1647 89.475 21.8526 89.2509C20.6096 88.358 18.7328 87.2 16.6445 86.2568C14.5619 85.316 12.2354 84.5734 10.1029 84.5447C9.58114 84.5377 9.21783 84.8739 9.10969 85.2901C9.00478 85.6938 9.13886 86.1606 9.52462 86.4634L20.4867 95.0678C21.2718 95.6841 22.3341 95.0696 22.3341 94.125Z" fill="url(#paint4_linear)" stroke="#335D79" stroke-width="0.8"/>
<path d="M1.81928 87.8358L20.1032 109.882C20.5024 110.364 21.0986 110.462 21.5835 110.27C22.0649 110.079 22.4341 109.605 22.4341 108.99V95.6309C22.4341 95.2158 22.2517 94.816 21.9272 94.5527L8.63531 83.7651L6.76243 82.2451L6.44734 82.6334L6.76243 82.2451C6.20877 81.7958 5.41758 81.8745 4.95498 82.4114L1.83579 86.0314C1.39419 86.544 1.38761 87.3153 1.81928 87.8358Z" fill="url(#paint5_linear)" stroke="#335D79"/>
<path d="M137.666 44.0873V40.1727C137.666 39.8001 137.835 39.4373 138.147 39.2131C139.39 38.3203 141.267 37.1623 143.355 36.219C145.438 35.2783 147.765 34.5357 149.897 34.507C150.419 34.4999 150.782 34.8362 150.89 35.2524C150.995 35.6561 150.861 36.1229 150.475 36.4257L139.513 45.0301C138.728 45.6464 137.666 45.0319 137.666 44.0873Z" fill="url(#paint6_linear)" stroke="#335D79" stroke-width="0.8"/>
<path d="M158.181 37.7981L139.897 59.8447C139.498 60.326 138.901 60.4242 138.417 60.2319C137.935 60.0411 137.566 59.5676 137.566 58.9522V45.5932C137.566 45.1781 137.748 44.7783 138.073 44.5149L151.365 33.7274L153.238 32.2074L153.553 32.5956L153.238 32.2074C153.791 31.7581 154.582 31.8368 155.045 32.3737L158.164 35.9937C158.606 36.5062 158.612 37.2776 158.181 37.7981Z" fill="url(#paint7_linear)" stroke="#335D79"/>
<path d="M22.3341 44.0873V40.1727C22.3341 39.8001 22.1647 39.4373 21.8526 39.2131C20.6096 38.3203 18.7328 37.1623 16.6445 36.219C14.5619 35.2783 12.2354 34.5357 10.1029 34.507C9.58114 34.4999 9.21783 34.8362 9.10969 35.2524C9.00478 35.6561 9.13886 36.1229 9.52462 36.4257L20.4867 45.0301C21.2718 45.6464 22.3341 45.0319 22.3341 44.0873Z" fill="url(#paint8_linear)" stroke="#335D79" stroke-width="0.8"/>
<path d="M1.81928 37.7981L20.1032 59.8447C20.5024 60.326 21.0986 60.4242 21.5835 60.2319C22.0649 60.0411 22.4341 59.5676 22.4341 58.9522V45.5932C22.4341 45.1781 22.2517 44.7783 21.9272 44.5149L8.63531 33.7274L6.76243 32.2074L6.44734 32.5956L6.76243 32.2074C6.20877 31.7581 5.41758 31.8368 4.95498 32.3737L1.83579 35.9937C1.39419 36.5062 1.38761 37.2776 1.81928 37.7981Z" fill="url(#paint9_linear)" stroke="#335D79"/>
<path fill-rule="evenodd" clip-rule="evenodd" d="M77.6567 8.34962L26.0247 38.4005C24.2114 39.4558 23.0954 41.3993 23.0954 43.5016V103.1C23.0954 105.281 24.296 107.285 26.2169 108.308L77.8519 135.826C79.5941 136.755 81.6845 136.745 83.4185 135.802L133.877 108.334C135.773 107.302 136.953 105.313 136.953 103.151V43.4499C136.953 41.367 135.857 39.4385 134.071 38.3763L83.609 8.37724C81.7763 7.28772 79.4994 7.27716 77.6567 8.34962ZM24.7593 36.2143L76.3913 6.16341C79.0236 4.63132 82.2764 4.64641 84.8945 6.20286L135.356 36.2019C137.909 37.7194 139.474 40.4743 139.474 43.4499V103.151C139.474 106.24 137.788 109.082 135.08 110.556L84.6212 138.023C82.1441 139.372 79.1577 139.385 76.6688 138.058L25.0339 110.54C22.2897 109.078 20.5746 106.216 20.5746 103.1V43.5016C20.5746 40.4983 22.1689 37.7219 24.7593 36.2143Z" fill="#3F0244"/>
<path fill-rule="evenodd" clip-rule="evenodd" d="M76.538 7.21351C79.1504 5.69789 82.3645 5.71286 84.963 7.25272L134.823 36.7996C137.398 38.3253 138.98 41.1184 138.98 44.1379V102.817C138.98 105.95 137.277 108.83 134.548 110.311L84.6891 137.365C82.2321 138.698 79.2816 138.712 76.8131 137.4L25.8383 110.321C23.073 108.852 21.3409 105.952 21.3409 102.791V44.164C21.3409 41.1165 22.9523 38.302 25.5647 36.7864L76.538 7.21351ZM80.7171 14.5911L29.7437 44.164V102.791L80.7185 129.871L130.577 102.817L130.577 44.1379L80.7171 14.5911Z" fill="#335D79"/>
<path fill-rule="evenodd" clip-rule="evenodd" d="M76.538 7.21351C79.1504 5.69789 82.3645 5.71286 84.963 7.25272L134.823 36.7996C137.398 38.3253 138.98 41.1184 138.98 44.1379V102.817C138.98 105.95 137.277 108.83 134.548 110.311L84.6891 137.365C82.2321 138.698 79.2816 138.712 76.8131 137.4L25.8383 110.321C23.073 108.852 21.3409 105.952 21.3409 102.791V44.164C21.3409 41.1165 22.9523 38.302 25.5647 36.7864L76.538 7.21351ZM80.7171 14.5911L29.7437 44.164V102.791L80.7185 129.871L130.577 102.817L130.577 44.1379L80.7171 14.5911Z" fill="url(#paint10_linear)"/>
<path fill-rule="evenodd" clip-rule="evenodd" d="M75.6964 5.75573C78.8343 3.93523 82.6969 3.95326 85.818 5.8028L135.678 35.3497C138.769 37.1812 140.66 40.5284 140.66 44.1388V102.817C140.66 106.564 138.624 110.016 135.347 111.794L85.4889 138.848C82.5375 140.45 78.9916 140.465 76.0264 138.89L25.0516 111.811C21.7314 110.047 19.6604 106.571 19.6604 102.792V44.1649C19.6604 40.5211 21.587 37.1481 24.7231 35.3286L75.6964 5.75573ZM31.4243 45.1368V101.778L80.7101 127.96L128.897 101.813L128.896 45.1004L80.7081 16.5441L31.4243 45.1368ZM80.7171 14.5919L29.7437 44.1648V102.792L80.7185 129.872L130.577 102.817L130.577 44.1388L80.7171 14.5919ZM84.963 7.25359C82.3645 5.71372 79.1504 5.69875 76.538 7.21438L25.5647 36.7873C22.9523 38.3029 21.341 41.1174 21.341 44.1649V102.792C21.341 105.953 23.073 108.853 25.8383 110.322L76.8131 137.401C79.2816 138.712 82.2321 138.699 84.6891 137.366L134.548 110.312C137.277 108.831 138.98 105.951 138.98 102.817V44.1388C138.98 41.1193 137.398 38.3262 134.823 36.8004L84.963 7.25359Z" fill="#335D79"/>
<path d="M75.2673 15.2189V6.9922C75.2673 6.69358 75.4316 6.41881 75.6958 6.27582L80.3962 3.73172C80.6325 3.60381 80.9169 3.59877 81.1577 3.71823L86.3255 6.28224C86.6041 6.42047 86.7801 6.70303 86.7801 7.01211V15.2014C86.7801 15.3625 86.732 15.52 86.642 15.6541L81.4878 23.3259C81.1545 23.8219 80.4151 23.8075 80.1018 23.2988L75.3879 15.6444C75.309 15.5163 75.2673 15.369 75.2673 15.2189Z" fill="url(#paint11_linear)"/>
<path fill-rule="evenodd" clip-rule="evenodd" d="M75.6959 6.27578L74.9083 4.84302L79.6086 2.29892C80.3176 1.91518 81.171 1.90007 81.8933 2.25845L87.0611 4.82246C87.8968 5.23714 88.4248 6.08482 88.4248 7.01207V15.2014C88.4248 15.6847 88.2806 16.1572 88.0105 16.5593L82.8563 24.2311C81.8565 25.7193 79.6384 25.6758 78.6985 24.1497L80.1019 23.2987C80.4152 23.8074 81.1545 23.8219 81.4878 23.3258L86.642 15.654C86.7321 15.52 86.7801 15.3625 86.7801 15.2014V7.01207C86.7801 6.70298 86.6041 6.42042 86.3255 6.2822L81.1578 3.71818C80.917 3.59872 80.6325 3.60376 80.3962 3.73167L75.6959 6.27578ZM75.388 15.6444C75.3091 15.5162 75.2673 15.369 75.2673 15.2189V6.99215C75.2673 6.69354 75.4317 6.41877 75.6959 6.27578L74.9083 4.84302C74.1157 5.272 73.6226 6.0963 73.6226 6.99215V15.2189C73.6226 15.6693 73.7479 16.111 73.9846 16.4954L75.388 15.6444ZM75.388 15.6444L73.9846 16.4954L78.6985 24.1497L80.1019 23.2987L75.388 15.6444Z" fill="#335D79"/>
<path d="M75.2673 128.857V137.084C75.2673 137.382 75.4316 137.657 75.6958 137.8L80.3962 140.344C80.6325 140.472 80.9169 140.477 81.1577 140.358L86.3255 137.794C86.6041 137.656 86.7801 137.373 86.7801 137.064V128.875C86.7801 128.713 86.732 128.556 86.642 128.422L81.4878 120.75C81.1545 120.254 80.4151 120.269 80.1018 120.777L75.3879 128.432C75.309 128.56 75.2673 128.707 75.2673 128.857Z" fill="url(#paint12_linear)"/>
<path fill-rule="evenodd" clip-rule="evenodd" d="M75.6959 137.8L74.9083 139.233L79.6086 141.777C80.3176 142.161 81.171 142.176 81.8933 141.818L87.0611 139.254C87.8968 138.839 88.4248 137.991 88.4248 137.064V128.875C88.4248 128.391 88.2806 127.919 88.0105 127.517L82.8563 119.845C81.8565 118.357 79.6384 118.4 78.6985 119.926L80.1019 120.777C80.4152 120.269 81.1545 120.254 81.4878 120.75L86.642 128.422C86.7321 128.556 86.7801 128.714 86.7801 128.875V137.064C86.7801 137.373 86.6041 137.656 86.3255 137.794L81.1578 140.358C80.917 140.477 80.6325 140.472 80.3962 140.344L75.6959 137.8ZM75.388 128.432C75.3091 128.56 75.2673 128.707 75.2673 128.857V137.084C75.2673 137.382 75.4317 137.657 75.6959 137.8L74.9083 139.233C74.1157 138.804 73.6226 137.98 73.6226 137.084V128.857C73.6226 128.407 73.7479 127.965 73.9846 127.581L75.388 128.432ZM75.388 128.432L73.9846 127.581L78.6985 119.926L80.1019 120.777L75.388 128.432Z" fill="#335D79"/>
<path d="M132.696 49.8946L140.028 46.0558C140.294 45.9165 140.463 45.644 140.467 45.3454L140.541 40.033C140.545 39.7659 140.417 39.5139 140.198 39.3584L135.501 36.0193C135.248 35.8393 134.914 35.8167 134.638 35.9609L127.339 39.7823C127.195 39.8574 127.078 39.9731 127 40.1147L122.567 48.2182C122.281 48.7421 122.638 49.3843 123.238 49.4218L132.26 49.9873C132.411 49.9968 132.562 49.9647 132.696 49.8946Z" fill="url(#paint13_linear)"/>
<path fill-rule="evenodd" clip-rule="evenodd" d="M140.467 45.3454L142.111 45.368L142.185 40.0556C142.197 39.2544 141.812 38.4984 141.155 38.0316L136.459 34.6926C135.699 34.1525 134.697 34.0847 133.871 34.5174L126.571 38.3388C126.141 38.5643 125.787 38.9113 125.554 39.3361L121.122 47.4395C120.262 49.0114 121.335 50.9379 123.134 51.0506L123.238 49.4218C122.638 49.3842 122.28 48.7421 122.567 48.2181L127 40.1147C127.077 39.9731 127.195 39.8574 127.339 39.7822L134.638 35.9609C134.914 35.8167 135.248 35.8393 135.501 36.0193L140.198 39.3583C140.416 39.5139 140.545 39.7659 140.541 40.033L140.467 45.3454ZM132.26 49.9873C132.411 49.9967 132.562 49.9647 132.696 49.8946L140.028 46.0558C140.294 45.9165 140.462 45.644 140.467 45.3454L142.111 45.368C142.099 46.2638 141.594 47.0812 140.796 47.4993L133.463 51.3381C133.062 51.5483 132.609 51.6445 132.156 51.6161L132.26 49.9873ZM132.26 49.9873L132.156 51.6161L123.134 51.0506L123.238 49.4218L132.26 49.9873Z" fill="#335D79"/>
<path d="M28.2853 49.8946L20.9527 46.0558C20.6866 45.9165 20.5184 45.644 20.5142 45.3454L20.4399 40.033C20.4362 39.7659 20.5644 39.5139 20.7833 39.3584L25.48 36.0193C25.7332 35.8393 26.0672 35.8167 26.3427 35.9609L33.6419 39.7823C33.7855 39.8574 33.9034 39.9731 33.9809 40.1147L38.4138 48.2182C38.7004 48.7421 38.3425 49.3843 37.7429 49.4218L28.7208 49.9873C28.5698 49.9968 28.4191 49.9647 28.2853 49.8946Z" fill="url(#paint14_linear)"/>
<path fill-rule="evenodd" clip-rule="evenodd" d="M20.5143 45.3454L18.8698 45.368L18.7955 40.0556C18.7843 39.2544 19.169 38.4984 19.8255 38.0316L24.5223 34.6926C25.2819 34.1525 26.2838 34.0847 27.1102 34.5174L34.4095 38.3388C34.8402 38.5643 35.1941 38.9113 35.4265 39.3361L39.8594 47.4395C40.7192 49.0114 39.6455 50.9379 37.8467 51.0506L37.743 49.4218C38.3426 49.3842 38.7005 48.7421 38.4139 48.2181L33.981 40.1147C33.9036 39.9731 33.7856 39.8574 33.642 39.7822L26.3428 35.9609C26.0673 35.8167 25.7333 35.8393 25.4801 36.0193L20.7834 39.3583C20.5645 39.5139 20.4363 39.7659 20.44 40.033L20.5143 45.3454ZM28.721 49.9873C28.5699 49.9967 28.4192 49.9647 28.2854 49.8946L20.9529 46.0558C20.6867 45.9165 20.5185 45.644 20.5143 45.3454L18.8698 45.368C18.8823 46.2638 19.3869 47.0812 20.1854 47.4993L27.5179 51.3381C27.9194 51.5483 28.3716 51.6445 28.8246 51.6161L28.721 49.9873ZM28.721 49.9873L28.8246 51.6161L37.8467 51.0506L37.743 49.4218L28.721 49.9873Z" fill="#335D79"/>
<path d="M132.696 99.313L140.028 103.152C140.294 103.291 140.463 103.564 140.467 103.862L140.541 109.175C140.545 109.442 140.417 109.694 140.198 109.849L135.501 113.188C135.248 113.368 134.914 113.391 134.638 113.247L127.339 109.425C127.195 109.35 127.078 109.235 127 109.093L122.567 100.989C122.281 100.466 122.638 99.8234 123.238 99.7858L132.26 99.2203C132.411 99.2109 132.562 99.2429 132.696 99.313Z" fill="url(#paint15_linear)"/>
<path fill-rule="evenodd" clip-rule="evenodd" d="M140.467 103.862L142.111 103.839L142.185 109.152C142.197 109.953 141.812 110.709 141.155 111.176L136.459 114.515C135.699 115.055 134.697 115.123 133.871 114.69L126.571 110.869C126.141 110.643 125.787 110.296 125.554 109.871L121.122 101.768C120.262 100.196 121.335 98.2696 123.134 98.1569L123.238 99.7857C122.638 99.8233 122.28 100.465 122.567 100.989L127 109.093C127.077 109.234 127.195 109.35 127.339 109.425L134.638 113.247C134.914 113.391 135.248 113.368 135.501 113.188L140.198 109.849C140.416 109.694 140.545 109.442 140.541 109.175L140.467 103.862ZM132.26 99.2202C132.411 99.2108 132.562 99.2428 132.696 99.3129L140.028 103.152C140.294 103.291 140.462 103.564 140.467 103.862L142.111 103.839C142.099 102.944 141.594 102.126 140.796 101.708L133.463 97.8694C133.062 97.6593 132.609 97.5631 132.156 97.5915L132.26 99.2202ZM132.26 99.2202L132.156 97.5915L123.134 98.1569L123.238 99.7857L132.26 99.2202Z" fill="#335D79"/>
<path d="M28.2853 99.313L20.9527 103.152C20.6866 103.291 20.5184 103.564 20.5142 103.862L20.4399 109.175C20.4362 109.442 20.5644 109.694 20.7833 109.849L25.48 113.188C25.7332 113.368 26.0672 113.391 26.3427 113.247L33.6419 109.425C33.7855 109.35 33.9034 109.235 33.9809 109.093L38.4138 100.989C38.7004 100.466 38.3425 99.8234 37.7429 99.7858L28.7208 99.2203C28.5698 99.2109 28.4191 99.2429 28.2853 99.313Z" fill="url(#paint16_linear)"/>
<path fill-rule="evenodd" clip-rule="evenodd" d="M20.5143 103.862L18.8698 103.839L18.7955 109.152C18.7843 109.953 19.169 110.709 19.8255 111.176L24.5223 114.515C25.2819 115.055 26.2838 115.123 27.1102 114.69L34.4095 110.869C34.8402 110.643 35.1941 110.296 35.4265 109.871L39.8594 101.768C40.7192 100.196 39.6455 98.2696 37.8467 98.1569L37.743 99.7857C38.3426 99.8233 38.7005 100.465 38.4139 100.989L33.981 109.093C33.9036 109.234 33.7856 109.35 33.642 109.425L26.3428 113.247C26.0673 113.391 25.7333 113.368 25.4801 113.188L20.7834 109.849C20.5645 109.694 20.4363 109.442 20.44 109.175L20.5143 103.862ZM28.721 99.2202C28.5699 99.2108 28.4192 99.2428 28.2854 99.3129L20.9529 103.152C20.6867 103.291 20.5185 103.564 20.5143 103.862L18.8698 103.839C18.8823 102.944 19.3869 102.126 20.1854 101.708L27.5179 97.8694C27.9194 97.6593 28.3716 97.5631 28.8246 97.5915L28.721 99.2202ZM28.721 99.2202L28.8246 97.5915L37.8467 98.1569L37.743 99.7857L28.721 99.2202Z" fill="#335D79"/>
<defs>
<linearGradient id="paint0_linear" x1="112.167" y1="17.9878" x2="112.167" y2="30.9463" gradientUnits="userSpaceOnUse">
<stop stop-color="#5893AF"/>
<stop offset="1" stop-color="#6FBCDC"/>
</linearGradient>
<linearGradient id="paint1_linear" x1="48.6271" y1="17.9878" x2="48.6271" y2="30.9463" gradientUnits="userSpaceOnUse">
<stop stop-color="#5893AF"/>
<stop offset="1" stop-color="#6FBCDC"/>
</linearGradient>
<linearGradient id="paint2_linear" x1="144.295" y1="84.8926" x2="144.295" y2="95.2595" gradientUnits="userSpaceOnUse">
<stop stop-color="#5893AF"/>
<stop offset="1" stop-color="#6FBCDC"/>
</linearGradient>
<linearGradient id="paint3_linear" x1="148.033" y1="82.31" x2="148.033" y2="110.819" gradientUnits="userSpaceOnUse">
<stop stop-color="#5893AF"/>
<stop offset="1" stop-color="#6FBCDC"/>
</linearGradient>
<linearGradient id="paint4_linear" x1="15.7047" y1="84.8926" x2="15.7047" y2="95.2595" gradientUnits="userSpaceOnUse">
<stop stop-color="#5893AF"/>
<stop offset="1" stop-color="#6FBCDC"/>
</linearGradient>
<linearGradient id="paint5_linear" x1="11.9671" y1="82.31" x2="11.9671" y2="110.819" gradientUnits="userSpaceOnUse">
<stop stop-color="#5893AF"/>
<stop offset="1" stop-color="#6FBCDC"/>
</linearGradient>
<linearGradient id="paint6_linear" x1="144.295" y1="34.8549" x2="144.295" y2="45.2217" gradientUnits="userSpaceOnUse">
<stop stop-color="#5893AF"/>
<stop offset="1" stop-color="#6FBCDC"/>
</linearGradient>
<linearGradient id="paint7_linear" x1="148.033" y1="32.2723" x2="148.033" y2="60.781" gradientUnits="userSpaceOnUse">
<stop stop-color="#5893AF"/>
<stop offset="1" stop-color="#6FBCDC"/>
</linearGradient>
<linearGradient id="paint8_linear" x1="15.7047" y1="34.8549" x2="15.7047" y2="45.2217" gradientUnits="userSpaceOnUse">
<stop stop-color="#5893AF"/>
<stop offset="1" stop-color="#6FBCDC"/>
</linearGradient>
<linearGradient id="paint9_linear" x1="11.9671" y1="32.2723" x2="11.9671" y2="60.781" gradientUnits="userSpaceOnUse">
<stop stop-color="#5893AF"/>
<stop offset="1" stop-color="#6FBCDC"/>
</linearGradient>
<linearGradient id="paint10_linear" x1="80.1604" y1="6.08722" x2="80.1604" y2="138.375" gradientUnits="userSpaceOnUse">
<stop stop-color="#5893AF"/>
<stop offset="1" stop-color="#6FBCDC"/>
</linearGradient>
<linearGradient id="paint11_linear" x1="81.0237" y1="3.52756" x2="81.0237" y2="24.3892" gradientUnits="userSpaceOnUse">
<stop stop-color="#5893AF"/>
<stop offset="1" stop-color="#6FBCDC"/>
</linearGradient>
<linearGradient id="paint12_linear" x1="81.0237" y1="140.548" x2="81.0237" y2="119.687" gradientUnits="userSpaceOnUse">
<stop stop-color="#5893AF"/>
<stop offset="1" stop-color="#6FBCDC"/>
</linearGradient>
<linearGradient id="paint13_linear" x1="140.43" y1="39.387" x2="121.899" y2="49.2398" gradientUnits="userSpaceOnUse">
<stop stop-color="#5893AF"/>
<stop offset="1" stop-color="#6FBCDC"/>
</linearGradient>
<linearGradient id="paint14_linear" x1="20.5508" y1="39.387" x2="39.0822" y2="49.2398" gradientUnits="userSpaceOnUse">
<stop stop-color="#5893AF"/>
<stop offset="1" stop-color="#6FBCDC"/>
</linearGradient>
<linearGradient id="paint15_linear" x1="140.43" y1="109.821" x2="121.899" y2="99.9679" gradientUnits="userSpaceOnUse">
<stop stop-color="#5893AF"/>
<stop offset="1" stop-color="#6FBCDC"/>
</linearGradient>
<linearGradient id="paint16_linear" x1="20.5508" y1="109.821" x2="39.0822" y2="99.9679" gradientUnits="userSpaceOnUse">
<stop stop-color="#5893AF"/>
<stop offset="1" stop-color="#6FBCDC"/>
</linearGradient>
</defs>
</svg>
