<svg width="34" height="34" viewBox="0 0 34 34" fill="none" xmlns="http://www.w3.org/2000/svg">
<path fill-rule="evenodd" clip-rule="evenodd" d="M0 4.18254C0 1.87259 1.87259 0 4.18254 0H29.8175C32.1274 0 34 1.87259 34 4.18254V29.8175C34 32.1274 32.1274 34 29.8175 34H4.18254C1.87259 34 0 32.1274 0 29.8175V4.18254ZM4.18254 1.88889C2.91579 1.88889 1.88889 2.91579 1.88889 4.18254V29.8175C1.88889 31.0842 2.91579 32.1111 4.18254 32.1111H29.8175C31.0842 32.1111 32.1111 31.0842 32.1111 29.8175V4.18254C32.1111 2.91579 31.0842 1.88889 29.8175 1.88889H4.18254Z" fill="url(#paint0_linear)"/>
<defs>
<linearGradient id="paint0_linear" x1="0" y1="0" x2="33.5" y2="34.5" gradientUnits="userSpaceOnUse">
<stop offset="0.0219812" stop-color="#7B148C"/>
<stop offset="0.347324" stop-color="#E567E8"/>
<stop offset="0.487054" stop-color="#7B048E"/>
<stop offset="0.696243" stop-color="#E567E8"/>
<stop offset="0.989583" stop-color="#7B048E"/>
</linearGradient>
</defs>
</svg>
